/* XPM */
static char * Papyrus_128x128_xpm[] = {
"128 128 73 1",
" 	c None",
".	c #FFFFFF",
"+	c #F2F3F7",
"@	c #A1A2A5",
"#	c #7A7B80",
"$	c #35373C",
"%	c #26282D",
"&	c #7A7D86",
"*	c #A9AAAD",
"=	c #6D7078",
"-	c #2D6449",
";	c #3C7359",
">	c #318257",
",	c #6B6C71",
"'	c #B0B1B5",
")	c #505259",
"!	c #35A066",
"~	c #3C3E44",
"{	c #BCBEC2",
"]	c #DADCE1",
"^	c #86888E",
"/	c #E6E7E9",
"(	c #29463B",
"_	c #C8C9CA",
":	c #D8D8DA",
"<	c #294448",
"[	c #2C6063",
"}	c #339999",
"|	c #5C5D61",
"1	c #A4A6AD",
"2	c #9C9EA5",
"3	c #469395",
"4	c #2F7C7E",
"5	c #1A5040",
"6	c #277853",
"7	c #929396",
"8	c #00001A",
"9	c #385357",
"0	c #43464C",
"a	c #666971",
"b	c #1C1E28",
"c	c #131423",
"d	c #3B6F72",
"e	c #090A1E",
"f	c #5F6169",
"g	c #0D282D",
"h	c #336954",
"i	c #99CCCC",
"j	c #727479",
"k	c #95979D",
"l	c #DFDFE2",
"m	c #409167",
"n	c #5A5C63",
"o	c #BFC1CA",
"p	c #CBCDD2",
"q	c #53555B",
"r	c #B3B5BC",
"s	c #4B4D54",
"t	c #898A90",
"u	c #6E7078",
"v	c #3F8B8D",
"w	c #2B2D37",
"x	c #39554A",
"y	c #44464C",
"z	c #4C8268",
"A	c #47645A",
"B	c #B8B9BD",
"C	c #E6E8EF",
"D	c #CECFD4",
"E	c #9ACFB2",
"F	c #96B1A4",
"G	c #95AFB1",
"H	c #CCE5E5",
".....................................................................................+@#$%%%%%%%%$&*............................",
".................................................................................+*=$%%----;>------%%,'+........................",
"...............................................................................*)%%--!!!!!!!!!!!!!!!>-%~{.......................",
"............................................................................]^%%->!!!!!!!!!!!!!!!!!!!!!-%%^+....................",
"........................................................................../,%(>!!!!!!!!!!!!!!!!!!!!!!!!!>(%%#{..................",
".........................................................................^%(!!!!!!!!!!!!!!!!!!!!!!!!!!!!!!>(%%,_................",
".......................................................................:)%>!!!!!!!!!!!!!!!!!!!!!!!!!!!!!!!!!(<[%){..............",
"......................................................................{%-!!!!!!!!!!!!!!!!!!!!!!!!!!!!!!!!!!!!%}}[%|+............",
".....................................................................1%>!!!!!!!!!!!!!!!!!!!!!!!!!!!!!!!!!!!!!(<}}}<%2...........",
"....................................................................,(>!!!!!!!!!!!!!!!!!!!!!!!!!!!!!!!!!!!!!!>%}}}}}<)_.........",
"...................................................................)(>!!!!!!!!!!!!!!!!!!!!!!!!!!!!!!!!!!!!!!!!%3}}}}}4%^........",
"..................................................................|(!!!!!!!!!!!!!!!!!!!!556!!!!!!!!!!!!!!!!!!!%[}}}}}}4<)/......",
"..............................................................+]7^(!!!!!!!!!!!!!!!!!!!688886!!!!!!!!!!!!!!!!!!([}}}}}}}}90:.....",
"........................................................]777a%%bc%>!!!!!!!!!!!!!!!!!!!888888!!!!!!!!!!!!!!!!!!-<}}}}}}}}}d%{....",
"....................................................:7)%%%bcc888e(!!!!!!!!!!!!!!!!!!!!8888885!!!!!!!!!!!!!!!!!>%}}}}}}}}}}4<{...",
"................................................{7f%%bce88888888b>!!!!!!!!!!!!!!!!!!!!8888886!!!!!!!!!!!!!!!!!!%}}}}}}}}}}}4%_+.",
".............................................{^%%bce88888888888e%!!!!!!!!!!!!!!!!!!!!!58888g!!!!!!!!!!!!!!!!!!!%}}}}}}}}}}}}4%{.",
"..........................................+7~%cc888888888888888c-!!!!!!!!!!!!!!!!!!!!!!h555!!!!!!!!!!!!!!!!!!!!$4}}}}}}}}}}}}4%{",
"........................................{,%ce888888888888888888c>!!!!!!!!!!!!!!!!!!!!!!!!!!!!!!!!!!!!!!!!!!!!!!-[}}}}}}}}}}}}}47",
"......................................@0%c888888888888888888888%!!!!!!!!!!!!!!!!!!!!!!!!!!!!!!!!!!!!!!!!!!!!!!!-[}}}}}}}}}}}}}}i",
"....................................@%%c88888888888888888888888%!!!!!!!!!!!!!!!!!!!!!!!!!!!!!!!!!!!!!!!!!!!!!!!-[}}}}}}}}}}}}}}i",
"..................................{$bc8888888888888888888888888%!!!!!!!!!!!!!!!!!!!!!!!!!!!!!!!!!!!!!!!!!!!!!!!-[}}}}}}}}}}}}}}i",
"................................{)bc888888888888888888888888888%!!!!!!!!!!!!!!!!!!!!!!!!!!!!!!!!!!!!!!!!!!!!!!!-[}}}}}}}}}}}}}}i",
"...............................j%c88888888888888888888888888888%!!!!!!!!!!!!!!!!!!!!!!!!!!!!!!!!!!!!!!!!!!!!!!!-[}}}}}}}}}}}}}}i",
".............................+|be888888888888888888888888888888%!!!!!!!!!!!!!!!!!!!!!!!!!!!!!!!!!!!!!!!!!!!!!!!-[}}}}}}}}}}}}}}i",
"............................{%b88888888888888888888888888888888c!!!!!!!!!!!!!!!!!!!!!!!!!!!!!!!!!!!!!!!!!!!!!!!-[}}}}}}}}}}}}}}i",
"...........................kbe888888888888888888888888888888888c-!!!!!!!!!!!!!!!!!!!!!!!!!!!!!!!!!!!!!!!!!!!!!!-[}}}}}}}}}}}}}}i",
".........................+|%e8888888888888888888888888888888888e(!!!!!!!!!!!!!!!!!!!!!!!!!!!!!!!!!!!!!!!!!!!!!!-[}}}}}}}}}}}}}}i",
"........................+|b8888888888888888888888888888888888888%>!!!!!!!!!!!!!!!!!!!!!!!!!!!!!!!!!!!!!!!!!!!!!-d}}}}}}}}}}}}}}i",
".......................+)b88888888888888888888888888888888888888c(!!!!!!!!!!!!!!!!!!!!!!!!!!!!!!!!!!!!!!!!!!!!!%}}}}}}}}}}}}}}}i",
"......................l0c8888888888888888888888888888888888888888b>!!!!!!!!!!!!!!!!!!!!!!!!!!!!!!!!!!!!!!!!!!!!%}}}}}}}}}}}}}}}i",
"....................._%e88888888888888888888888888888888888888888e%>!!!!!!!!!!!!!!!!!!!!!!!!!!!!!!!!!!!!!!!!!!!%}}}}}}}}}}}}}}}i",
"....................:%e8888888888888888888888888888888888888888888e%;!!!!!!!!!!!!!!!!!!!!!!!!!!!!!!!!!!!!!!!!!m%}}}}}}}}}}}}}}}i",
".................../%c888888888888888888888888888888888888888888888eb(!!!!!!!!!!!!!!!!!!!!!!!!!!!!!!!!!!!!!!!!-<}}}}}}}}}}}}}}}i",
"..................+)b8888888888888888888888888888888888888cccccccccb%%%(-!!!!!!!!!!!!!!!!!!!!!!!!!!!!!!!!!!!!!-[}}}}}}}}}}}}}}}i",
".................+|b88888888888888888888888888888888cccb%$n=^777@@'77{l7)%(--->!!!!!!!!!!!!!!!!!!!!!!!!!!!!!!!(d}}}}}}}}}}}}}}}i",
".................|b888888888888888888888888888ecc%%%f7@o.................+77=%%%%(--!!!!!!!!!!!!!!!!!!!!!!!!!!%}}}}}}}}}}}}}}}}i",
"................jb888888888888888888888888eb%%$0^7/...........................+'77&$%-!!!!!!!!!!!!!!!!!!!!!!!>%}}}}}}}}}}}}}}}}i",
"...............{%88888888888888888888888eb%#p.......................................{)-!!!!!!!!!!!!!!!!!!!!!!-$}}}}}}}}}}}}}}}}i",
".............._%e888888888888888888888cb$^+..........................................:%!!!!!!!!!!!!!!!!!!!!!!-[}}}}}}}}}}}}}}}}i",
"............+/%e88888888888888888888c%f@....................................+.........)-!!!!!!!!!!!!!!!!!!!!!([}}}}}}}}}}}}}}}}i",
".............|c8888888888888888888c%fp................................................7(!!!!!!!!!!!!!!!!!!!!!%}}}}}}}}}}}}}}}}}i",
"............^b888888888888888888e%qp+.................................................7%!!!!!!!!!!!!!!!!!!!!!%}}}}}}}}}}}}}}}}}i",
"...........:%e88888888888888888c%1....................................................p%!!!!!!!!!!!!!!!!!!!!><}}}}}}}}}}}}}}}}}i",
"..........+)e8888888888888888eb,:.....................................................+%!!!!!!!!!!!!!!!!!!!!(4}}}}}}}}}}}}}}}}}i",
"..........|b8888888888888888e%r.......................................................p%!!!!!!!!!!!!!!!!!!!-<}}}}}}}}}}}}}}}}}}i",
".........{%8888888888888888bs_........................................................7(!!!!!!!!!!!!!!!!!!!%4}}}}}}}}}}}}}}}}}}i",
".........)c88888888888888eb#+.........................................................,-!!!!!!!!!!!!!!!!!!-<}}}}}}}}}}}}}}}}}}}i",
"........'b88888888888888e$t..........................................................+%m!!!!!!!!!!!!!!!!!!(4}}}}}}}}}}}}}}}}}}}i",
"........~e8888888888888c$:...........................................................^-!!!!!!!!!!!!!!!!!!-<}}}}}}}}}}}}}}}}}}}}i",
".......7b8888888888888c~:............................................................%>!!!!!!!!!!!!!!!!!!([}}}}}}}}}}}}}}}}}}}}i",
"......+$e888888888888cu+............................................................^(!!!!!!!!!!!!!!!!!!>%}}}}}}}}}}}}}}}}}}}}}i",
"......{b888888888888ef+............................................................_%>!!!!!!!!!!!!!!!!!!([}}}}}}}}}}}}}}}}}}}}}i",
"......)e88888888888b,..............................................................)-!!!!!!!!!!!!!!!!!!>%}}}}}}}}}}}}}}}}}}}}}}i",
".....+%88888888888b#..............................................................'$!!!!!!!!!!!!!!!!!!!-[}}}}}}}}}}}}}}}}}}}}}}i",
".....#c8888888888b,..............................................................+$>!!!!!!!!!!!!!!!!!!!%v}}}}}}}}}}}}}}}}}}}}}}i",
"....+%e888888888b,...............................................................^(!!!!!!!!!!!!!!!!!!!-<}}}}}}}}}}}}}}}}}}}}}}}i",
"....^b888888888cf+.............................................................._%m!!!!!!!!!!!!!!!!!!!%4}}}}}}}}}}}}}}}}}}}}}}}i",
"....$e88888888e$/...............................................................0-!!!!!!!!!!!!!!!!!!!-<}}}}}}}}}}}}}}}}}}}}}}}}i",
"...+%88888888e$:...............................................................|(!!!!!!!!!!!!!!!!!!!!%4}}}}}}}}}}}}}}}}}}}}}}}}i",
"...^c88888888w:...............................................................{%m!!!!!!!!!!!!!!!!!!!-<}}}}}}}}}}}}}}}}}}}}}}}}}i",
"...%e8888888br................................................................$>!!!!!!!!!!!!!!!!!!!!%4}}}}}}}}}}}}}}}}}}}}}}}}}i",
"..@$8888888bk................................................................^x!!!!!!!!!!!!!!!!!!!!-<}}}}}}}}}}}}}}}}}}}}}}}}}}i",
"..#c888888e#................................................................_%!!!!!!!!!!!!!!!!!!!!!%4}}}}}}}}}}}}}}}}}}}}}}}}}}i",
".+%e88888ey/................................................................|-!!!!!!!!!!!!!!!!!!!!-<}}}}}}}}}}}}}}}}}}}}}}}}}}}i",
".@b888888wp................................................................_$!!!!!!!!!!!!!!!!!!!!!%4}}}}}}}}}}}}}}}}}}}}}}}}}}}i",
".#e88888e#.................................................................|>!!!!!!!!!!!!!!!!!!!!-<}}}}}}}}}}}}}}}}}}}}}}}}}}}}i",
"+%88888ef.................................................................{(!!!!!!!!!!!!!!!!!!!!>%}}}}}}}}}}}}}}}}}}}}}}}}}}}}}i",
"p%88888$_..................................+..............................~>!!!!!!!!!!!!!!!!!!!!([}}}}}}}}}}}}}}}}}}}}}}}}}}}}}i",
"7c8888ck.................................................................7(!!!!!!!!!!!!!!!!!!!!-<}}}}}}}}}}}}}}}}}}}}}}}}}}}}}}i",
"^c8888$+.................................................................%m!!!!!!!!!!!!!!!!!!!>%4}}}}}}}}}}}}}}}}}}}}}}}}}}}}}}i",
"=c888b@.................................................................#;!!!!!!!!!!!!!!!!!!!>%4}}}}}}}}}}}}}}}}}}}}}}}}}}}}}}}i",
"$c88e$+................................................................_%!!!!!!!!!!!!!!!!!!!!%4}}}}}}}}}}}}}}}}}}}}}}}}}}}}}}}}i",
"%e88b{.................................................................);!!!!!!!!!!!!!!!!!!!([}}}}}}}}}}}}}}}}}}}}}}}}}}}}}}}}}i",
"%88ef.................................................................{$!!!!!!!!!!!!!!!!!!!-$}}}}}}}}}}}}}}}}}}}}}}}}}}}}}}}}}}i",
"%88b*.................................................................)>!!!!!!!!!!!!!!!!!!>%4}}}}}}}}}}}}}}}}}}}}}}}}}}}}}}}}}}i",
"%8e%.................................................................{x!!!!!!!!!!!!!!!!!!!([}}}}}}}}}}}}}}}}}}}}}}}}}}}}}}}}}}}i",
"%8c^.................................................................);!!!!!!!!!!!!!!!!!!><}}}}}}}}}}}}}}}}}}}}}}}}}}}}}}}}}}}}i",
"%8%:................................................................+%!!!!!!!!!!!!!!!!!!!%4}}}}}}}}}}}}}}}}}}}}}}}}}}}}}}}}}}}}i",
"%e).................................................................7x!!!!!!!!!!!!!!!!!!-<}}}}}}}}}}}}}}}}}}}}}}}}}}}}}}}}}}}}}i",
"%c^.................................................................$m!!!!!!!!!!!!!!!!!!%4}}}}}}}}}}}}}}}}}}}}}}}}}}}}}}}}}}}}}i",
"%%7................................................................{(!!!!!!!!!!!!!!!!!!><}}}}}}}}}}}}}}}}}}}}}}}}}}}}}}}}}}}}}}i",
"|y+................................................................^-!!!!!!!!!!!!!!!!!!([}}}}}}}}}}}}}}}}}}}}}}}}}}}}}}}}}}}}}}i",
"..................................................................+%!!!!!!!!!!!!!!!!!!>%}}}}}}}}}}}}}}}}}}}}}}}}}}}}}}}}}}}}}}}i",
"..................................................................7x!!!!!!!!!!!!!!!!!!-[}}}}}}}}}}}}}}}}}}}}}}}}}}}}}}}}}}}}}}}i",
"..................................................................0z!!!!!!!!!!!!!!!!!!%}}}}}}}}}}}}}}}}}}}}}}}}}}}}}}}}}}}}}}}}i",
".................................................................+%!!!!!!!!!!!!!!!!!!-[}}}}}}}}}}}}}}}}}}}}}}}}}}}}}}}}}}}}}}}}i",
".................................................................7-!!!!!!!!!!!!!!!!!!(4}}}}}}}}}}}}}}}}}}}}}}}}}}}}}}}}}}}}}}}}i",
".................................................................)>!!!!!!!!!!!!!!!!!!%}}}}}}}}}}}}}}}}}}}}}}}}}}}}}}}}}}}}}}}}}i",
"................................................................+$!!!!!!!!!!!!!!!!!!-[}}}}}}}}}}}}}}}}}}}}}}}}}}}}}}}}}}}}}}}}}i",
"................................................................^A!!!!!!!!!!!!!!!!!!%4}}}}}}}}}}}}}}}}}}}}}}}}}}}}}}}}}}}}}}}}}i",
"................................................................#-!!!!!!!!!!!!!!!!!!%}}}}}}}}}}}}}}}}}}}}}}}}}}}}}}}}}}}}}}}}}}i",
"................................................................%z!!!!!!!!!!!!!!!!!-<}}}}}}}}}}}}}}}}}}}}}}}}}}}}}}}}}}}}}}}}}}i",
"...............................................................+%!!!!!!!!!!!!!!!!!!-[}}}}}}}}}}}}}}}}}}}}}}}}}}}}}}}}}}}}}}}}}}i",
"...............................................................'%!!!!!!!!!!!!!!!!!!%}}}}}}}}}}}}}}}}}}}}}}}}}}}}}}}}}}}}}}}}}}}i",
"...............................................................7-!!!!!!!!!!!!!!!!!!%}}}}}}}}}}}}}}}}}}}}}}}}}}}}}}}}}}}}}}}}}}}i",
"...............................................................)m!!!!!!!!!!!!!!!!!!%}}}}}}}}}}}}}}}}}}}}}}}}}}}}}}}}}}}}}}}}}}}i",
"...............................................................$!!!!!!!!!!!!!!!!!!><}}}}}}}}}}}}}}}}}}}}}}}}}}}}}}}}}}}}}}}}}}}i",
"..............................................................{y!!!!!!!!!!!!!!!!!!-[}}}}}}}}}}}}}}}}}}}}}}}}}}}}}}}}}}}}}}}}}}}i",
"..............................................................7-!!!!!!!!!!!!!!!!!!-[}}}}}}}}}}}}}}}}}}}}}}}}}}}}}}}}}}}}}}}}}}}i",
"..............................................................^-!!!!!!!!!!!!!!!!!!-[}}}}}}}}}}}}}}}}}}}}}}}}}}}}}}}}}}}}}}}}}}}i",
"..............................................................$m!!!!!!!!!!!!!!!!!!%[}}}}}}}}}}}}}}}}}}}}}}}}}}}}}}}}}}}}}}}}}}}i",
"..............................................................%!!!!!!!!!!!!!!!!!!!%}}}}}}}}}}}}}}}}}}}}}}}}}}}}}}}}}}}}}}}}}}}}i",
".............................................................+$!!!!!!!!!!!!!!!!!!!%}}}}}}}}}}}}}}}}}}}}}}}}}}}}}}}}}}}}}}}}}}}}i",
".............................................................{x!!!!!!!!!!!!!!!!!!!%}}}}}}}}}}}}}}}}}}}}}}}}}}}}}}}}}}}}}}}}}}}}i",
".............................................................7-!!!!!!!!!!!!!!!!!!>%}}}}}}}}}}}}}}}}}}}}}}}}}}}}}}}}}}}}}}}}}}}}i",
".............................................................0;!!!!!!!!!!!!!!!!!!-%}}}}}}}}}}}}}}}}}}}}}}}}}}}}}}}}}}}}}}}}}}}}i",
".............................................................%m!!!!!!!!!!!!!!!!!!-$}}}}}}}}}}}}}}}}}}}}}}}}}}}}}}}}}}}}}}}}}}}}i",
".............................................................%!!!!!!!!!!!!!!!!!!!-$}}}}}}}}}}}}}}}}}}}}}}}}}}}}}}}}}}}}}}}}}}}}i",
"............................................................]$!!!!!!!!!!!!!!!!!!!-s}}}}}}}}}}}}}}}}}}}}}}}}}}}}}}}}}}}}}}}}}}}}i",
"............................................................By!!!!!!!!!!!!!!!!!!!-y}}}}}}}}}}}}}}}}}}}}}}}}}}}}}}}}}}}}}}}}}}}}i",
"............................................................7y!!!!!!!!!!!!!!!!!!!-$}}}}}}}}}}}}}}}}}}}}}}}}}}}}}}}}}}}}}}}}}}}}i",
"............................................................7(!!!!!!!!!!!!!!!!!!!-%}}}}}}}}}}}}}}}}}}}}}}}}}}}}}}}}}}}}}}}}}}}}i",
"............................................................7-!!!!!!!!!!!!!!!!!!!-<}}}}}}}}}}}}}}}}}}}}}}}}}}}}}}}}}}}}}}}}}}}}i",
"............................................................^-!!!!!!!!!!!!!!!!!!!-[}}}}}}}}}}}}}}}}}}}}}}}}}}}}}}}}}}}}}}}}}}}}i",
"............................................................=;!!!!!!!!!!!!!!!!!!!-[}}}}}}}}}}}}}}}}}}}}}}}}}}}}}}}}}}}}}}}}}}}}i",
"............................................................%!!!!!!!!!!!!!!!!!!!!-[}}}}}}}}}}}}}}}}}}}}}}}}}}}}}}}}}}}}}}}}}}}}i",
"............................................................%!!!!!!!!!!!!!!!!!!!!-[}}}}}}}}}}}}}}}}}}}}}}}}}}}}}}}}}}}}}}}}}}}}i",
"............................................................$!!!!!!!!!!!!!!!!!!!!-[}}}}}}}}}}}}}}}}}}}}}}}}}}}}}}}}}}}}}}}}}}}}i",
"...........................................................+%!!!!!!!!!!!!!!!!!!!!-[}}}}}}}}}}}}}}}}}}}}}}}}}}}}}}}}}}}}}}}}}}}}i",
"...........................................................C$!!!!!!!!!!!!!!!!!!!!-[}}}}}}}}}}}}}}}}}}}}}}}}}}}}}}}}}}}}}}}}}}}}i",
"...........................................................D%!!!!!!!!!!!!!!!!!!!!-<}}}}}}}}}}}}}}}}}}}}}}}}}}}}}}}}}}}}}}}}}}}}i",
"...........................................................D%!!!!!!!!!!!!!!!!!!!!-<}}}}}}}}}}}}}}}}}}}}}}}}}}}}}}}}}}}}}}}}}}}}i",
"...........................................................D$!!!!!!!!!!!!!!!!!!!!!%}}}}}}}}}}}}}}}}}}}}}}}}}}}}}}}}}}}}}}}}}}}}i",
"...........................................................D$!!!!!!!!!!!!!!!!!!!!!%}}}}}}}}}}}}}}}}}}}}}}}}}}}}}}}}}}}}}}}}}}}}i",
"...........................................................+7EEEEEEEEEEEEEEEEEEEEEFGiiiiiiiiiiiiiiiiiiiiiiiiiiiiiiiiiiiiiiiiiiiH",
"..:.............................................................................................................................",
"................................................................................................................................"};
